<svg width="27" height="24" viewBox="0 0 27 24" fill="none" xmlns="http://www.w3.org/2000/svg">
<path d="M16.7899 0H18.6846C20.0741 0 21.2109 1.13684 21.2109 2.52632V10.6105L16.7899 0ZM23.6109 2.02105L25.253 2.77895C26.5162 3.28421 27.1478 4.8 26.6425 6.06316L23.6109 13.5158V2.02105ZM20.9583 16.8L14.6425 1.64211C14.2636 0.631579 13.3793 0.126316 12.3688 0.126316C11.9899 0.126316 11.7372 0.252632 11.3583 0.378947L2.01093 4.16842C0.747772 4.67368 0.116193 6.06316 0.747771 7.32632L7.06356 22.4842C7.44251 23.4947 8.32672 24 9.33724 24C9.71619 24 9.96882 24 10.3478 23.7474L19.6951 19.9579C20.7057 19.5789 21.2109 18.6947 21.2109 17.6842C21.0846 17.4316 21.0846 17.0526 20.9583 16.8ZM12.6215 16.1684L8.57935 13.1368L9.08461 8.08421L13.1267 11.1158L12.6215 16.1684Z" fill="#590BC2"/>
</svg>
