<svg width="28" height="24" viewBox="0 0 28 24" fill="none" xmlns="http://www.w3.org/2000/svg">
<path d="M6.18685 8H10.1868C10.5646 8 10.8815 7.872 11.1375 7.616C11.3935 7.36 11.5211 7.04356 11.5202 6.66667C11.5202 6.28889 11.3922 5.972 11.1362 5.716C10.8802 5.46 10.5637 5.33245 10.1868 5.33333H6.18685C5.80907 5.33333 5.49218 5.46133 5.23618 5.71733C4.98018 5.97333 4.85263 6.28978 4.85352 6.66667C4.85352 7.04445 4.98152 7.36133 5.23752 7.61733C5.49352 7.87333 5.80996 8.00089 6.18685 8ZM6.18685 13.3333H10.1868C10.5646 13.3333 10.8815 13.2053 11.1375 12.9493C11.3935 12.6933 11.5211 12.3769 11.5202 12C11.5202 11.6222 11.3922 11.3053 11.1362 11.0493C10.8802 10.7933 10.5637 10.6658 10.1868 10.6667H6.18685C5.80907 10.6667 5.49218 10.7947 5.23618 11.0507C4.98018 11.3067 4.85263 11.6231 4.85352 12C4.85352 12.3778 4.98152 12.6947 5.23752 12.9507C5.49352 13.2067 5.80996 13.3342 6.18685 13.3333ZM6.18685 18.6667H10.1868C10.5646 18.6667 10.8815 18.5387 11.1375 18.2827C11.3935 18.0267 11.5211 17.7102 11.5202 17.3333C11.5202 16.9556 11.3922 16.6387 11.1362 16.3827C10.8802 16.1267 10.5637 15.9991 10.1868 16H6.18685C5.80907 16 5.49218 16.128 5.23618 16.384C4.98018 16.64 4.85263 16.9564 4.85352 17.3333C4.85352 17.7111 4.98152 18.028 5.23752 18.284C5.49352 18.54 5.80996 18.6676 6.18685 18.6667ZM17.5868 15.4333C17.7646 15.4333 17.9313 15.4053 18.0868 15.3493C18.2424 15.2933 18.3868 15.1991 18.5202 15.0667L23.2535 10.3333C23.5424 10.0444 23.6815 9.72756 23.6708 9.38267C23.6602 9.03778 23.5211 8.73245 23.2535 8.46667C22.9868 8.2 22.67 8.06667 22.3028 8.06667C21.9357 8.06667 21.6193 8.2 21.3535 8.46667L17.5868 12.2333L16.6202 11.2667C16.3535 11 16.0424 10.8724 15.6868 10.884C15.3313 10.8956 15.0202 11.0342 14.7535 11.3C14.5091 11.5667 14.3811 11.8778 14.3695 12.2333C14.358 12.5889 14.486 12.9 14.7535 13.1667L16.6535 15.0667C16.7868 15.2 16.9313 15.2947 17.0868 15.3507C17.2424 15.4067 17.4091 15.4342 17.5868 15.4333ZM3.52018 24C2.78685 24 2.15885 23.7387 1.63618 23.216C1.11352 22.6933 0.852629 22.0658 0.853518 21.3333V2.66667C0.853518 1.93334 1.11485 1.30534 1.63752 0.782669C2.16018 0.260002 2.78774 -0.000886625 3.52018 2.26372e-06H24.8535C25.5868 2.26372e-06 26.2148 0.261336 26.7375 0.784002C27.2602 1.30667 27.5211 1.93422 27.5202 2.66667V21.3333C27.5202 22.0667 27.2588 22.6947 26.7362 23.2173C26.2135 23.74 25.586 24.0009 24.8535 24H3.52018Z" fill="#D014E9"/>
</svg>
