<svg width="56" height="56" viewBox="0 0 56 56" fill="none" xmlns="http://www.w3.org/2000/svg">
<g filter="url(#filter0_d_166_608)">
<circle cx="28" cy="23" r="20" fill="white"/>
</g>
<path d="M28 39C36.8366 39 44 31.8366 44 23C44 14.1634 36.8366 7 28 7C19.1634 7 12 14.1634 12 23C12 31.8366 19.1634 39 28 39Z" fill="#FFCC4D"/>
<path d="M21.347 27.9973C21.387 28.1564 22.3852 31.8898 28.0003 31.8898C33.6163 31.8898 34.6136 28.1564 34.6536 27.9973C34.7025 27.8044 34.6154 27.6044 34.443 27.5049C34.2696 27.4062 34.0528 27.4355 33.9096 27.5733C33.8928 27.5902 32.1728 29.2231 28.0003 29.2231C23.8279 29.2231 22.107 27.5902 22.091 27.5742C22.0056 27.4898 21.8919 27.4453 21.7781 27.4453C21.7034 27.4453 21.6279 27.464 21.5594 27.5022C21.3852 27.6018 21.2981 27.8035 21.347 27.9973Z" fill="#664500"/>
<path d="M22.6666 22.1109C23.8939 22.1109 24.8888 20.718 24.8888 18.9998C24.8888 17.2816 23.8939 15.8887 22.6666 15.8887C21.4393 15.8887 20.4443 17.2816 20.4443 18.9998C20.4443 20.718 21.4393 22.1109 22.6666 22.1109Z" fill="#664500"/>
<path d="M33.3336 22.1109C34.5609 22.1109 35.5558 20.718 35.5558 18.9998C35.5558 17.2816 34.5609 15.8887 33.3336 15.8887C32.1063 15.8887 31.1113 17.2816 31.1113 18.9998C31.1113 20.718 32.1063 22.1109 33.3336 22.1109Z" fill="#664500"/>
<defs>
<filter id="filter0_d_166_608" x="0" y="0" width="56" height="56" filterUnits="userSpaceOnUse" color-interpolation-filters="sRGB">
<feFlood flood-opacity="0" result="BackgroundImageFix"/>
<feColorMatrix in="SourceAlpha" type="matrix" values="0 0 0 0 0 0 0 0 0 0 0 0 0 0 0 0 0 0 127 0" result="hardAlpha"/>
<feOffset dy="5"/>
<feGaussianBlur stdDeviation="4"/>
<feColorMatrix type="matrix" values="0 0 0 0 0 0 0 0 0 0 0 0 0 0 0 0 0 0 0.16 0"/>
<feBlend mode="normal" in2="BackgroundImageFix" result="effect1_dropShadow_166_608"/>
<feBlend mode="normal" in="SourceGraphic" in2="effect1_dropShadow_166_608" result="shape"/>
</filter>
</defs>
</svg>
