<svg width="18" height="24" viewBox="0 0 18 24" fill="none" xmlns="http://www.w3.org/2000/svg">
<path d="M9.25352 0C7.0257 0 4.88912 0.884997 3.31382 2.4603C1.73851 4.03561 0.853516 6.17218 0.853516 8.4C0.853516 11.256 2.28152 13.764 4.45352 15.288V18C4.45352 18.3183 4.57994 18.6235 4.80499 18.8485C5.03003 19.0736 5.33526 19.2 5.65352 19.2H12.8535C13.1718 19.2 13.477 19.0736 13.702 18.8485C13.9271 18.6235 14.0535 18.3183 14.0535 18V15.288C16.2255 13.764 17.6535 11.256 17.6535 8.4C17.6535 6.17218 16.7685 4.03561 15.1932 2.4603C13.6179 0.884997 11.4813 0 9.25352 0ZM5.65352 22.8C5.65352 23.1183 5.77994 23.4235 6.00499 23.6485C6.23003 23.8736 6.53526 24 6.85352 24H11.6535C11.9718 24 12.277 23.8736 12.502 23.6485C12.7271 23.4235 12.8535 23.1183 12.8535 22.8V21.6H5.65352V22.8Z" fill="#D014E9"/>
</svg>
