<svg width="24" height="24" viewBox="0 0 24 24" fill="none" xmlns="http://www.w3.org/2000/svg">
<path d="M9.14286 4.57143H13.7143V2.28571H9.14286V4.57143ZM18.2857 24C16.7048 24 15.3573 23.443 14.2434 22.3291C13.1288 21.2145 12.5714 19.8667 12.5714 18.2857C12.5714 16.7048 13.1288 15.357 14.2434 14.2423C15.3573 13.1284 16.7048 12.5714 18.2857 12.5714C19.8667 12.5714 21.2145 13.1284 22.3291 14.2423C23.443 15.357 24 16.7048 24 18.2857C24 19.8667 23.443 21.2145 22.3291 22.3291C21.2145 23.443 19.8667 24 18.2857 24ZM20.1714 20.9714L20.9714 20.1714L18.8571 18.0571V14.8571H17.7143V18.5143L20.1714 20.9714ZM11.0571 21.7143H2.28571C1.65714 21.7143 1.11924 21.4907 0.672 21.0434C0.224 20.5954 0 20.0571 0 19.4286V6.85714C0 6.22857 0.224 5.69067 0.672 5.24343C1.11924 4.79543 1.65714 4.57143 2.28571 4.57143H6.85714V2.28571C6.85714 1.65714 7.08114 1.11886 7.52914 0.670857C7.97638 0.223619 8.51429 0 9.14286 0H13.7143C14.3429 0 14.8811 0.223619 15.3291 0.670857C15.7764 1.11886 16 1.65714 16 2.28571V4.57143H20.5714C21.2 4.57143 21.7383 4.79543 22.1863 5.24343C22.6335 5.69067 22.8571 6.22857 22.8571 6.85714V11.7429C22.1905 11.2667 21.4667 10.9048 20.6857 10.6571C19.9048 10.4095 19.1048 10.2857 18.2857 10.2857C16.0571 10.2857 14.1669 11.0617 12.6149 12.6137C11.0621 14.1665 10.2857 16.0571 10.2857 18.2857C10.2857 18.8952 10.3478 19.4857 10.472 20.0571C10.5954 20.6286 10.7905 21.181 11.0571 21.7143Z" fill="#590BC2"/>
</svg>
