<svg width="30" height="22" viewBox="0 0 30 22" fill="none" xmlns="http://www.w3.org/2000/svg">
<path d="M28.998 1.55281C27.1872 0.790156 25.3749 0.5 23.5636 0.5C17.8136 0.499531 12.064 3.42219 6.31397 3.42219C4.87191 3.42219 3.43078 3.23844 1.98872 2.77906C1.82673 2.7275 1.66427 2.70312 1.50555 2.70312C0.702122 2.70312 0 3.3275 0 4.19422V19.0658C0 19.6578 0.337523 20.2189 0.87952 20.4467C2.69038 21.2098 4.50264 21.5 6.31397 21.5C12.064 21.5 17.814 18.5773 23.564 18.5773C25.0061 18.5773 26.4472 18.7611 27.8893 19.2205C28.0513 19.272 28.2137 19.2964 28.3725 19.2964C29.1759 19.2964 29.878 18.672 29.878 17.8053V2.93422C29.8775 2.34172 29.54 1.78109 28.998 1.55281ZM14.9388 15.5C12.8758 15.5 11.2041 13.4848 11.2041 11C11.2041 8.51469 12.8763 6.5 14.9388 6.5C17.0013 6.5 18.6735 8.51469 18.6735 11C18.6735 13.4858 17.0008 15.5 14.9388 15.5Z" fill="#590BC2"/>
</svg>
