<svg width="25" height="24" viewBox="0 0 25 24" fill="none" xmlns="http://www.w3.org/2000/svg">
<g clip-path="url(#clip0_219_1065)">
<path d="M20.496 0H4.08C1.82668 0 0 1.82668 0 4.08V19.8816C0 22.1349 1.82668 23.9616 4.08 23.9616H20.496C22.7493 23.9616 24.576 22.1349 24.576 19.8816V4.08C24.576 1.82668 22.7493 0 20.496 0Z" fill="#001E36"/>
<path d="M5.53418 16.8032V6.26835C5.53418 6.19155 5.5672 6.15296 5.63316 6.15296L5.73751 6.15267L5.91588 6.15075L6.16375 6.14585L6.99415 6.12828L7.88455 6.11177C8.1977 6.1064 8.50816 6.10352 8.81594 6.10352C9.65114 6.10352 10.3545 6.20796 10.9262 6.41676C11.4419 6.59119 11.9122 6.87842 12.3029 7.25753C12.634 7.58617 12.89 7.98275 13.053 8.4199C13.2072 8.8453 13.2854 9.29452 13.2839 9.747C13.2839 10.6265 13.0805 11.3518 12.6738 11.9232C12.276 12.4807 11.7213 12.907 11.0802 13.1478L11.0252 13.168C10.3558 13.4177 9.61447 13.5079 8.80144 13.5136L8.67511 13.5139L8.48762 13.513L8.39306 13.5116L8.28765 13.5091L8.2241 13.5067L8.18551 13.5046L8.09056 13.5012L7.9745 13.4988L7.79978 13.4975L7.7609 13.4974V16.7867C7.76379 16.8068 7.76194 16.8274 7.75551 16.8467C7.74907 16.8661 7.73822 16.8836 7.72382 16.898C7.70941 16.9124 7.69185 16.9233 7.67253 16.9297C7.6532 16.9361 7.63265 16.938 7.61248 16.9351H5.64967C5.57258 16.9351 5.53418 16.8913 5.53418 16.8032ZM7.761 8.13132V11.5674C7.89257 11.578 8.02451 11.5835 8.15652 11.5839H8.70064C9.07579 11.5826 9.44875 11.5268 9.80781 11.4181L9.87943 11.3957C10.2061 11.2987 10.498 11.1098 10.7203 10.8516C10.9269 10.6079 11.0339 10.2722 11.0413 9.84435L11.0418 9.79644C11.0504 9.47753 10.9675 9.16284 10.8027 8.88972C10.6294 8.62558 10.379 8.42121 10.0855 8.30441C9.7023 8.15546 9.29295 8.08539 8.88199 8.0984L8.6729 8.09897L8.541 8.10012L8.41514 8.10176L8.23754 8.10521L8.10794 8.10886L8.04064 8.11136L7.95069 8.11558L7.87408 8.12028L7.8304 8.12374L7.79268 8.12739L7.77607 8.12931L7.761 8.13132ZM19.6583 10.9426C19.3707 10.7948 19.0656 10.6838 18.7503 10.6122L18.6773 10.5964C18.3305 10.5168 17.9763 10.473 17.6205 10.4656L17.5316 10.4645C17.323 10.4589 17.1147 10.4839 16.9133 10.5387C16.7852 10.5672 16.6712 10.6402 16.5917 10.7447C16.538 10.8284 16.5094 10.9257 16.5094 11.0251C16.5124 11.1214 16.5471 11.2142 16.6083 11.2888C16.6958 11.3911 16.801 11.4768 16.9188 11.5419L16.9545 11.5608C17.1896 11.6874 17.4318 11.8002 17.6799 11.8987C18.2332 12.084 18.7619 12.3359 19.2543 12.6489C19.5898 12.8606 19.8674 13.1524 20.0622 13.498C20.226 13.8252 20.308 14.1872 20.3013 14.5531C20.3112 15.0362 20.1731 15.5108 19.9056 15.9133C19.6192 16.3218 19.2215 16.6393 18.7597 16.8282C18.2762 17.0407 17.6823 17.1504 16.9782 17.1576L16.9051 17.158C16.4686 17.1624 16.0328 17.1242 15.6037 17.044L15.5119 17.0261C15.1507 16.9599 14.7991 16.8491 14.4651 16.6963C14.4315 16.679 14.4031 16.6531 14.3829 16.6212C14.3626 16.5893 14.3511 16.5527 14.3497 16.5149V14.718C14.3477 14.7005 14.3505 14.6829 14.3578 14.6669C14.365 14.6509 14.3765 14.6372 14.3909 14.6273C14.4051 14.6193 14.4214 14.6158 14.4375 14.6172C14.4537 14.6187 14.4691 14.6251 14.4816 14.6355C14.876 14.8681 15.3043 15.0378 15.751 15.1384C16.1447 15.2371 16.5486 15.2897 16.9545 15.295C17.3391 15.295 17.6221 15.2455 17.8036 15.1466C17.8855 15.1091 17.9548 15.0487 18.0031 14.9726C18.0514 14.8965 18.0766 14.8081 18.0756 14.718C18.0756 14.5753 17.9932 14.4379 17.8283 14.3059C17.7592 14.2506 17.66 14.1904 17.531 14.1254L17.4693 14.095L17.4034 14.064L17.3689 14.0483L17.2965 14.0162C17.2839 14.0107 17.2713 14.0053 17.2588 13.9999L17.18 13.9669L17.139 13.9501L17.054 13.916L17.0098 13.8987L16.9183 13.8635L16.8226 13.8277C16.3049 13.6475 15.8141 13.3979 15.3635 13.0858C15.0413 12.8617 14.7759 12.5652 14.5887 12.2203C14.4266 11.8954 14.3446 11.5364 14.3497 11.1734C14.3487 10.7372 14.4686 10.3092 14.6958 9.93689C14.955 9.52697 15.3271 9.20057 15.7675 8.99724C16.251 8.75561 16.8555 8.63465 17.5809 8.63446C18.0058 8.63105 18.4303 8.66138 18.8504 8.72518C19.1546 8.76376 19.452 8.8442 19.7342 8.96422C19.7796 8.97728 19.8162 9.01078 19.8331 9.05494C19.8443 9.09516 19.8498 9.13673 19.8496 9.17859V10.8437C19.852 10.8831 19.8331 10.9208 19.8002 10.9426C19.7781 10.9535 19.7538 10.9592 19.7292 10.9592C19.7046 10.9592 19.6803 10.9535 19.6583 10.9426Z" fill="#31A8FF"/>
</g>
<defs>
<clipPath id="clip0_219_1065">
<rect width="24.576" height="24" fill="white"/>
</clipPath>
</defs>
</svg>
