<svg width="13" height="13" viewBox="0 0 13 13" fill="none" xmlns="http://www.w3.org/2000/svg">
<path d="M10.6 3.6002L1.725 12.5002C1.525 12.7002 1.28733 12.8002 1.012 12.8002C0.736667 12.8002 0.499333 12.7002 0.3 12.5002C0.0999997 12.3002 0 12.0625 0 11.7872C0 11.5119 0.0999997 11.2745 0.3 11.0752L9.2 2.2002H1.6C1.31667 2.2002 1.079 2.1042 0.887 1.9122C0.695 1.7202 0.599333 1.48287 0.6 1.2002C0.6 0.916865 0.696 0.679199 0.888 0.487199C1.08 0.295199 1.31733 0.199532 1.6 0.200199H11.6C11.8833 0.200199 12.121 0.296199 12.313 0.488199C12.505 0.680199 12.6007 0.917532 12.6 1.2002V11.2002C12.6 11.4835 12.504 11.7212 12.312 11.9132C12.12 12.1052 11.8827 12.2009 11.6 12.2002C11.3167 12.2002 11.079 12.1042 10.887 11.9122C10.695 11.7202 10.5993 11.4829 10.6 11.2002V3.6002Z" fill="#EFEFEF"/>
</svg>
