<svg width="31" height="24" viewBox="0 0 31 24" fill="none" xmlns="http://www.w3.org/2000/svg">
<path d="M28.8535 21.3333H2.18685C1.45352 21.3333 0.853516 21.9333 0.853516 22.6667C0.853516 23.4 1.45352 24 2.18685 24H28.8535C29.5868 24 30.1868 23.4 30.1868 22.6667C30.1868 21.9333 29.5868 21.3333 28.8535 21.3333ZM4.85352 20H26.1868C27.6535 20 28.8402 18.8 28.8402 17.3333L28.8535 2.66667C28.8535 1.2 27.6535 0 26.1868 0H4.85352C3.38685 0 2.18685 1.2 2.18685 2.66667V17.3333C2.18685 18.8 3.38685 20 4.85352 20ZM10.9735 6.73333C11.3576 6.1611 11.8638 5.68114 12.4557 5.32799C13.0475 4.97484 13.7103 4.75728 14.3963 4.69097C15.0823 4.62467 15.7745 4.71127 16.423 4.94453C17.0715 5.17779 17.6603 5.55193 18.1469 6.04C19.7202 7.61333 19.9335 10.04 18.7735 11.8533L20.8535 13.92C21.2402 14.3067 21.2402 14.9467 20.8535 15.3333C20.4669 15.72 19.8268 15.72 19.4402 15.3333L17.3735 13.2667C15.2802 14.6 12.3602 14.12 10.8802 11.7867C9.90685 10.2667 9.96018 8.22667 10.9735 6.73333Z" fill="#D014E9"/>
<path d="M14.8532 11.9993C16.3259 11.9993 17.5199 10.8054 17.5199 9.33268C17.5199 7.85992 16.3259 6.66602 14.8532 6.66602C13.3804 6.66602 12.1865 7.85992 12.1865 9.33268C12.1865 10.8054 13.3804 11.9993 14.8532 11.9993Z" fill="#D014E9"/>
</svg>
