<svg width="24" height="24" viewBox="0 0 24 24" fill="none" xmlns="http://www.w3.org/2000/svg">
<path d="M12.2791 18.0343C12.2256 17.7704 12.2751 17.5188 12.4274 17.2794C12.5792 17.0404 12.7871 16.8941 13.051 16.8407C13.3519 16.7829 13.6451 16.6903 13.9307 16.5629C14.2157 16.4359 14.5254 16.2627 14.86 16.0434C15.9053 15.358 16.5754 14.3507 16.8703 13.0215C17.1645 11.6926 16.9553 10.4846 16.2425 9.39742C16.0598 9.11866 15.8585 8.85722 15.6387 8.61311C15.4185 8.36845 15.1658 8.15026 14.8807 7.95853C14.6369 7.79948 14.4953 7.58344 14.4558 7.3104C14.4163 7.03736 14.4806 6.78592 14.6488 6.55608C14.817 6.32625 15.0354 6.18824 15.3041 6.14205C15.5724 6.0953 15.8214 6.15602 16.0513 6.32421C16.4282 6.59523 16.767 6.89128 17.0676 7.21238C17.3676 7.53384 17.6501 7.89667 17.9151 8.30088C18.9477 9.87592 19.2696 11.5829 18.8808 13.4217C18.4924 15.2611 17.5176 16.6925 15.9565 17.716C15.5105 18.0084 15.0973 18.2446 14.7171 18.4245C14.3365 18.6039 13.9193 18.7427 13.4655 18.8409C13.2016 18.8943 12.9571 18.8406 12.732 18.6796C12.5066 18.5181 12.3556 18.303 12.2791 18.0343ZM6.14557 15.8375C5.07644 14.2067 4.73773 12.451 5.12944 10.5704C5.52022 8.68961 6.531 7.21464 8.16179 6.14551C8.73326 5.77086 9.3651 5.48099 10.0573 5.27591C10.7504 5.07101 11.4736 4.98071 12.2269 5.00501C12.3841 5.0016 12.5332 5.03862 12.674 5.11607C12.814 5.19333 12.925 5.29468 13.0073 5.42013C13.1217 5.56431 13.1852 5.73713 13.1977 5.93859C13.2098 6.13949 13.1691 6.32048 13.0754 6.48155C12.1654 8.19416 11.5196 9.98267 11.138 11.8471C10.7558 13.7119 10.6545 15.6018 10.8338 17.517C10.8464 17.6881 10.8186 17.8506 10.7505 18.0045C10.6822 18.1593 10.5759 18.2939 10.4317 18.4084C10.3015 18.5137 10.1508 18.5726 9.97967 18.5852C9.80854 18.5977 9.6446 18.5757 9.48787 18.519C8.78737 18.2408 8.15338 17.8745 7.5859 17.4199C7.01861 16.9643 6.5385 16.4369 6.14557 15.8375ZM19.5264 7.06519C19.371 6.82824 19.3212 6.57712 19.3769 6.31184C19.4316 6.04637 19.5775 5.83596 19.8144 5.68062L20.6507 5.13235C20.8877 4.97701 21.1391 4.92699 21.4049 4.98229C21.6698 5.0374 21.88 5.18343 22.0353 5.42038C22.1906 5.65733 22.2409 5.90855 22.1862 6.17402C22.1305 6.4393 21.9842 6.64961 21.7473 6.80495L20.911 7.35322C20.674 7.50857 20.4231 7.55868 20.1582 7.50357C19.8923 7.44827 19.6817 7.30214 19.5264 7.06519ZM1.96406 18.5789C1.80872 18.3419 1.75888 18.0908 1.81455 17.8255C1.86929 17.56 2.01514 17.3496 2.25209 17.1943L3.0884 16.646C3.32535 16.4907 3.57646 16.4408 3.84174 16.4965C4.10722 16.5513 4.31762 16.6971 4.47297 16.9341C4.62831 17.171 4.67833 17.4224 4.62303 17.6882C4.56792 17.9532 4.42189 18.1633 4.18494 18.3186L3.34863 18.8669C3.11168 19.0222 2.86075 19.0724 2.59583 19.0172C2.33 18.9619 2.11941 18.8158 1.96406 18.5789ZM20.8126 13.8149C20.8702 13.538 21.0142 13.3241 21.2444 13.1731C21.4741 13.0225 21.7274 12.976 22.0043 13.0336L22.9735 13.2353C23.2505 13.2929 23.4666 13.4401 23.6219 13.6771C23.7773 13.914 23.8261 14.171 23.7685 14.4479C23.7109 14.7248 23.5651 14.9352 23.331 15.0791C23.096 15.2228 22.84 15.2659 22.5631 15.2083L21.5939 15.0066C21.317 14.949 21.1031 14.8051 20.9521 14.5748C20.8015 14.3451 20.755 14.0918 20.8126 13.8149ZM0.265437 9.55856C0.323044 9.28164 0.466699 9.06789 0.696402 8.9173C0.926664 8.76634 1.18025 8.71967 1.45717 8.77727L2.42637 8.97889C2.6802 9.0317 2.88023 9.16961 3.02643 9.39262C3.17264 9.61564 3.2239 9.86103 3.18024 10.1288C3.13657 10.3966 3.00083 10.6151 2.77302 10.7844C2.5452 10.9537 2.29284 11.0095 2.01592 10.9519L1.04672 10.7503C0.769807 10.6927 0.556055 10.549 0.405463 10.3193C0.254506 10.0891 0.20783 9.83547 0.265437 9.55856ZM16.6461 20.9109C16.4907 20.674 16.4409 20.4228 16.4966 20.1576C16.5513 19.8921 16.6972 19.6817 16.9341 19.5263C17.1711 19.371 17.4225 19.321 17.6883 19.3763C17.9532 19.4314 18.1633 19.5774 18.3187 19.8144L18.867 20.6507C19.0223 20.8876 19.0724 21.1386 19.0173 21.4035C18.962 21.6693 18.8159 21.8799 18.5789 22.0352C18.342 22.1906 18.0909 22.2404 17.8256 22.1848C17.5601 22.13 17.3497 21.9842 17.1943 21.7472L16.6461 20.9109ZM5.13241 3.34858C4.97706 3.11163 4.92723 2.86051 4.98289 2.59523C5.03764 2.32976 5.18349 2.11935 5.42044 1.96401C5.65739 1.80866 5.90879 1.75864 6.17462 1.81394C6.43954 1.86905 6.64967 2.01509 6.80501 2.25204L7.35328 3.08834C7.50862 3.32529 7.55892 3.5765 7.50418 3.84198C7.44851 4.10726 7.3022 4.31757 7.06525 4.47291C6.8283 4.62825 6.57736 4.67837 6.31245 4.62326C6.04661 4.56796 5.83602 4.42183 5.68068 4.18488L5.13241 3.34858ZM8.77733 22.5421L8.97895 21.5729C9.03176 21.3191 9.16967 21.1191 9.39268 20.9729C9.61569 20.8267 9.86109 20.7754 10.1289 20.8191C10.3966 20.8627 10.6152 20.9985 10.7845 21.2263C10.9537 21.4541 11.0096 21.7065 10.952 21.9834L10.7503 22.9526C10.6927 23.2295 10.5502 23.4377 10.3228 23.5772C10.0951 23.7162 9.8473 23.7638 9.57952 23.7202C9.31174 23.6765 9.09684 23.5384 8.93481 23.3058C8.77222 23.0736 8.71972 22.8191 8.77733 22.5421ZM13.0683 2.00216L13.2699 1.03296C13.3275 0.756044 13.4667 0.550022 13.6874 0.414893C13.9079 0.280688 14.1521 0.235419 14.4198 0.279087C14.6876 0.322754 14.9061 0.458495 15.0754 0.686309C15.2447 0.914124 15.3005 1.16649 15.2429 1.4434L15.0413 2.4126C14.9837 2.68952 14.8401 2.90327 14.6103 3.05386C14.3801 3.20482 14.1265 3.25149 13.8496 3.19389C13.5727 3.13628 13.3589 2.99263 13.2083 2.76292C13.0574 2.53266 13.0107 2.27907 13.0683 2.00216Z" fill="#590BC2"/>
</svg>
