<svg width="56" height="56" viewBox="0 0 56 56" fill="none" xmlns="http://www.w3.org/2000/svg">
<g filter="url(#filter0_d_166_596)">
<circle cx="27.9995" cy="23" r="20" fill="white"/>
</g>
<path d="M43.9995 23C43.9995 31.8364 36.836 39 27.9995 39C19.164 39 11.9995 31.8364 11.9995 23C11.9995 14.1644 19.164 7 27.9995 7C36.836 7 43.9995 14.1644 43.9995 23Z" fill="#FFCC4D"/>
<path d="M27.3878 22.6551C27.2314 22.528 27.0083 22.5244 26.8456 22.6426C26.835 22.6506 25.7256 23.4444 23.555 23.4444C21.3852 23.4444 20.275 22.6506 20.2661 22.6444C20.1034 22.5226 19.8794 22.5262 19.723 22.6524C19.5647 22.7786 19.5114 22.9955 19.5932 23.1804C19.6465 23.3004 20.9265 26.1111 23.555 26.1111C26.1843 26.1111 27.4634 23.3004 27.5167 23.1804C27.5985 22.9964 27.5452 22.7813 27.3878 22.6551ZM36.2767 22.6551C36.1203 22.528 35.8981 22.5235 35.7345 22.6426C35.7238 22.6506 34.6136 23.4444 32.4438 23.4444C30.275 23.4444 29.1638 22.6506 29.155 22.6444C28.9923 22.5226 28.7692 22.5262 28.6118 22.6524C28.4536 22.7786 28.4003 22.9955 28.4821 23.1804C28.5354 23.3004 29.8154 26.1111 32.4438 26.1111C35.0732 26.1111 36.3523 23.3004 36.4056 23.1804C36.4874 22.9964 36.4341 22.7813 36.2767 22.6551ZM31.555 31.8888H24.4438C23.9532 31.8888 23.555 31.4915 23.555 31C23.555 30.5084 23.9532 30.1111 24.4438 30.1111H31.555C32.0465 30.1111 32.4438 30.5084 32.4438 31C32.4438 31.4915 32.0465 31.8888 31.555 31.8888ZM17.3327 19.4444C16.8421 19.4444 16.4438 19.0462 16.4438 18.5555C16.4438 18.0657 16.8394 17.6684 17.3292 17.6666C17.4678 17.6648 20.5016 17.5902 22.8447 14.4666C23.139 14.0755 23.6954 13.9937 24.0892 14.2888C24.4821 14.5831 24.5612 15.1404 24.267 15.5333C21.3665 19.4 17.4963 19.4444 17.3327 19.4444ZM38.6661 19.4444C38.5025 19.4444 34.6332 19.4 31.7327 15.5333C31.4376 15.1404 31.5176 14.5831 31.9105 14.2888C32.3025 13.9928 32.859 14.0737 33.1541 14.4666C35.5016 17.5964 38.5416 17.6657 38.6705 17.6666C39.1594 17.672 39.5541 18.072 39.5514 18.56C39.5496 19.0497 39.155 19.4444 38.6661 19.4444Z" fill="#664500"/>
<defs>
<filter id="filter0_d_166_596" x="-0.000488281" y="0" width="56" height="56" filterUnits="userSpaceOnUse" color-interpolation-filters="sRGB">
<feFlood flood-opacity="0" result="BackgroundImageFix"/>
<feColorMatrix in="SourceAlpha" type="matrix" values="0 0 0 0 0 0 0 0 0 0 0 0 0 0 0 0 0 0 127 0" result="hardAlpha"/>
<feOffset dy="5"/>
<feGaussianBlur stdDeviation="4"/>
<feColorMatrix type="matrix" values="0 0 0 0 0 0 0 0 0 0 0 0 0 0 0 0 0 0 0.16 0"/>
<feBlend mode="normal" in2="BackgroundImageFix" result="effect1_dropShadow_166_596"/>
<feBlend mode="normal" in="SourceGraphic" in2="effect1_dropShadow_166_596" result="shape"/>
</filter>
</defs>
</svg>
