<svg width="24" height="24" viewBox="0 0 24 24" fill="none" xmlns="http://www.w3.org/2000/svg">
<path d="M12 16.26L13.38 17.64C13.5 17.76 13.64 17.82 13.8 17.82C13.96 17.82 14.1 17.76 14.22 17.64L15.6 16.26L16.14 16.8C16.32 16.98 16.53 17.07 16.77 17.07C17.01 17.07 17.22 16.98 17.4 16.8C17.58 16.62 17.67 16.41 17.67 16.17C17.67 15.93 17.58 15.72 17.4 15.54L16.02 14.16C15.9 14.04 15.76 13.98 15.6 13.98C15.44 13.98 15.3 14.04 15.18 14.16L13.8 15.54L12.42 14.16C12.3 14.04 12.16 13.98 12 13.98C11.84 13.98 11.7 14.04 11.58 14.16L10.2 15.54L8.82 14.16C8.7 14.04 8.56 13.98 8.4 13.98C8.24 13.98 8.1 14.04 7.98 14.16L6.6 15.54C6.42 15.72 6.33 15.93 6.33 16.17C6.33 16.41 6.42 16.62 6.6 16.8C6.78 16.98 6.99 17.07 7.23 17.07C7.47 17.07 7.68 16.98 7.86 16.8L8.4 16.26L9.78 17.64C9.9 17.76 10.04 17.82 10.2 17.82C10.36 17.82 10.5 17.76 10.62 17.64L12 16.26ZM7.77 9.6L6.21 10.74C6.01 10.9 5.8852 11.1 5.8356 11.34C5.7852 11.58 5.84 11.8 6 12C6.16 12.2 6.36 12.3248 6.6 12.3744C6.84 12.4248 7.06 12.37 7.26 12.21L10.17 10.08C10.33 9.96 10.41 9.8 10.41 9.6C10.41 9.4 10.33 9.24 10.17 9.12L7.26 6.99C7.06 6.83 6.84 6.7752 6.6 6.8256C6.36 6.8752 6.16 7 6 7.2C5.84 7.4 5.78 7.62 5.82 7.86C5.86 8.1 5.99 8.3 6.21 8.46L7.77 9.6ZM16.23 9.6L17.79 8.46C17.99 8.3 18.1148 8.1 18.1644 7.86C18.2148 7.62 18.16 7.4 18 7.2C17.84 7 17.64 6.8752 17.4 6.8256C17.16 6.7752 16.94 6.83 16.74 6.99L13.83 9.12C13.67 9.24 13.59 9.4 13.59 9.6C13.59 9.8 13.67 9.96 13.83 10.08L16.74 12.21C16.94 12.37 17.16 12.4248 17.4 12.3744C17.64 12.3248 17.84 12.2 18 12C18.16 11.8 18.22 11.58 18.18 11.34C18.14 11.1 18.01 10.9 17.79 10.74L16.23 9.6ZM12 24C10.34 24 8.78 23.6848 7.32 23.0544C5.86 22.4248 4.59 21.57 3.51 20.49C2.43 19.41 1.5752 18.14 0.9456 16.68C0.3152 15.22 0 13.66 0 12C0 10.34 0.3152 8.78 0.9456 7.32C1.5752 5.86 2.43 4.59 3.51 3.51C4.59 2.43 5.86 1.5748 7.32 0.9444C8.78 0.3148 10.34 0 12 0C13.66 0 15.22 0.3148 16.68 0.9444C18.14 1.5748 19.41 2.43 20.49 3.51C21.57 4.59 22.4248 5.86 23.0544 7.32C23.6848 8.78 24 10.34 24 12C24 13.66 23.6848 15.22 23.0544 16.68C22.4248 18.14 21.57 19.41 20.49 20.49C19.41 21.57 18.14 22.4248 16.68 23.0544C15.22 23.6848 13.66 24 12 24Z" fill="#590BC2"/>
</svg>
