<svg width="56" height="56" viewBox="0 0 56 56" fill="none" xmlns="http://www.w3.org/2000/svg">
<g filter="url(#filter0_d_166_601)">
<circle cx="28" cy="23" r="20" fill="white"/>
</g>
<path d="M44 23C44 31.8364 36.8364 39 28 39C19.1636 39 12 31.8364 12 23C12 14.1636 19.1636 7 28 7C36.8364 7 44 14.1636 44 23Z" fill="#FFCC4D"/>
<path d="M22.6666 24.1115C23.8939 24.1115 24.8888 23.0171 24.8888 21.6671C24.8888 20.3171 23.8939 19.2227 22.6666 19.2227C21.4393 19.2227 20.4443 20.3171 20.4443 21.6671C20.4443 23.0171 21.4393 24.1115 22.6666 24.1115Z" fill="#664500"/>
<path d="M33.3335 24.7769C34.5608 24.7769 35.5558 23.384 35.5558 21.6658C35.5558 19.9476 34.5608 18.5547 33.3335 18.5547C32.1063 18.5547 31.1113 19.9476 31.1113 21.6658C31.1113 23.384 32.1063 24.7769 33.3335 24.7769Z" fill="#664500"/>
<path d="M18.3129 18.1635C18.5342 18.32 18.8231 18.3733 19.0996 18.2835C22.8213 17.0791 25.3458 18.776 25.4516 18.8489C25.8542 19.1262 26.4071 19.0275 26.6871 18.6267C26.9671 18.2258 26.872 17.6747 26.4729 17.3929C26.3396 17.2987 23.152 15.104 18.5529 16.592C18.0853 16.7431 17.8293 17.2444 17.9813 17.7111C18.0418 17.9013 18.1618 18.056 18.3129 18.1635ZM34.2222 30.1111H21.7778C21.2871 30.1111 20.8889 29.7138 20.8889 29.2222C20.8889 28.7307 21.2871 28.3333 21.7778 28.3333H34.2222C34.7138 28.3333 35.1111 28.7307 35.1111 29.2222C35.1111 29.7138 34.7138 30.1111 34.2222 30.1111ZM38.6676 16.2515C38.3404 16.2515 38.0178 16.1084 37.7973 15.8329C36.5573 14.2764 33.976 12.9111 33.0738 12.9111C32.5031 12.9111 31.3627 13.7209 30.7591 14.3049C30.3182 14.7333 29.6142 14.72 29.1884 14.28C28.7618 13.84 28.7716 13.1378 29.2098 12.7102C29.5573 12.3724 31.3751 10.688 33.0738 10.688C34.856 10.688 37.9964 12.5155 39.536 14.4471C39.9191 14.9271 39.8391 15.6258 39.36 16.008C39.1547 16.1724 38.9093 16.2515 38.6676 16.2515Z" fill="#664500"/>
<defs>
<filter id="filter0_d_166_601" x="0" y="0" width="56" height="56" filterUnits="userSpaceOnUse" color-interpolation-filters="sRGB">
<feFlood flood-opacity="0" result="BackgroundImageFix"/>
<feColorMatrix in="SourceAlpha" type="matrix" values="0 0 0 0 0 0 0 0 0 0 0 0 0 0 0 0 0 0 127 0" result="hardAlpha"/>
<feOffset dy="5"/>
<feGaussianBlur stdDeviation="4"/>
<feColorMatrix type="matrix" values="0 0 0 0 0 0 0 0 0 0 0 0 0 0 0 0 0 0 0.16 0"/>
<feBlend mode="normal" in2="BackgroundImageFix" result="effect1_dropShadow_166_601"/>
<feBlend mode="normal" in="SourceGraphic" in2="effect1_dropShadow_166_601" result="shape"/>
</filter>
</defs>
</svg>
