<svg width="25" height="24" viewBox="0 0 25 24" fill="none" xmlns="http://www.w3.org/2000/svg">
<path d="M2.67444 17.9378V22.1791H6.91572L19.4247 9.65881L15.1834 5.41753L2.67444 17.9378ZM24.8535 19.1932L20.0467 24L14.1655 18.1188L16.1674 16.1169L17.2984 17.2479L20.092 14.443L21.698 16.049L20.0467 17.655L21.2456 18.7861L22.8516 17.2026L24.8535 19.1932ZM6.75738 10.6767L0.853516 4.80679L5.6603 0L7.65088 2.00188L4.85729 4.80679L6.06746 6.00565L8.84975 3.20075L10.4558 4.80679L8.84975 6.40151L9.98075 7.53252L6.75738 10.6767ZM22.7046 6.34496C23.1457 5.90386 23.1457 5.21395 22.7046 4.75024L20.058 2.14892C19.6396 1.70782 18.9044 1.70782 18.4633 2.14892L16.3823 4.21866L20.6235 8.45994L22.7046 6.34496Z" fill="#D014E9"/>
</svg>
