<svg width="165" height="164" viewBox="0 0 165 164" fill="none" xmlns="http://www.w3.org/2000/svg">
<path d="M164.854 82C164.854 100.573 158.548 118.596 146.969 133.119C135.391 147.641 119.225 157.803 101.118 161.94C83.0114 166.077 64.0366 163.944 47.2999 155.891C30.5632 147.838 17.0562 134.342 8.99004 117.612C0.92387 100.881 -1.22359 81.9081 2.8992 63.7981C7.022 45.6882 17.1708 29.5143 31.6842 17.9243C46.1976 6.3342 64.2158 0.0146128 82.7891 2.52909e-05C101.362 -0.0145622 119.391 6.27671 133.922 17.844L114.516 42.2233C105.506 35.0516 94.329 31.151 82.8136 31.16C71.2981 31.1691 60.1269 35.0872 51.1285 42.273C42.1302 49.4589 35.838 59.4867 33.2818 70.7148C30.7257 81.943 32.0571 93.7064 37.0582 104.079C42.0592 114.452 50.4335 122.82 60.8103 127.813C71.187 132.806 82.9514 134.128 94.1776 131.563C105.404 128.998 115.427 122.698 122.605 113.694C129.784 104.69 133.694 93.5155 133.694 82H164.854Z" fill="#D014E9"/>
<path d="M133.9 17.8262C143.55 25.5026 151.345 35.2567 156.705 46.3626C162.064 57.4684 164.849 69.64 164.854 81.9713L133.694 81.9822C133.691 74.3368 131.964 66.7904 128.641 59.9048C125.318 53.0192 120.486 46.9716 114.502 42.2122L133.9 17.8262Z" fill="#F4A2FF"/>
</svg>
