<svg width="173" height="165" viewBox="0 0 173 165" fill="none" xmlns="http://www.w3.org/2000/svg">
<path d="M8.22021 82.9966C8.22021 64.0255 14.7982 45.6412 26.8333 30.9763C38.8685 16.3115 55.6162 6.27328 74.2228 2.5722C92.8294 -1.12889 112.144 1.73611 128.875 10.679C145.606 19.622 158.718 34.0895 165.978 51.6165C173.238 69.1436 174.196 88.6457 168.689 106.8C163.182 124.954 151.551 140.637 135.777 151.177C120.003 161.717 101.063 166.461 82.1828 164.602C63.303 162.742 45.6521 154.394 32.2375 140.979L54.2709 118.946C62.588 127.263 73.5316 132.439 85.237 133.592C96.9425 134.745 108.686 131.803 118.465 125.268C128.245 118.734 135.457 109.01 138.871 97.7547C142.285 86.499 141.691 74.4077 137.19 63.541C132.689 52.6742 124.559 43.7043 114.186 38.1597C103.813 32.6151 91.8379 30.8388 80.3018 33.1335C68.7657 35.4281 58.3822 41.6518 50.9204 50.744C43.4586 59.8363 39.3802 71.2345 39.3802 82.9966L8.22021 82.9966Z" fill="#D014E9"/>
<path d="M32.7456 141.483C21.1468 130.085 13.1989 115.495 9.91234 99.5691L40.4293 93.2715C42.467 103.146 47.3947 112.191 54.586 119.258L32.7456 141.483Z" fill="#F4A2FF"/>
<path d="M9.72021 99.4932C8.90216 94.2284 8.00393 88.3198 8.22033 82.9962L39.377 82.9962C39.2428 86.2969 39.8698 90.2318 40.377 93.496L9.72021 99.4932Z" fill="#FBCAB4"/>
</svg>
