<svg width="165" height="164" viewBox="0 0 165 164" fill="none" xmlns="http://www.w3.org/2000/svg">
<path d="M164.853 82C164.853 95.485 161.528 108.762 155.171 120.655C148.814 132.547 139.622 142.689 128.41 150.181C117.198 157.672 104.311 162.283 90.8907 163.605C77.4706 164.927 63.9317 162.919 51.4732 157.758C39.0147 152.598 28.0212 144.444 19.4664 134.02C10.9116 123.596 5.05967 111.223 2.42888 97.9974C-0.20191 84.7715 0.46968 71.101 4.38416 58.1967C8.29865 45.2923 15.3352 33.5526 24.8705 24.0172L46.904 46.0507C40.9921 51.9626 36.6294 59.2412 34.2024 67.2419C31.7754 75.2426 31.3591 83.7184 32.9901 91.9184C34.6212 100.118 38.2495 107.79 43.5534 114.253C48.8574 120.715 55.6734 125.771 63.3976 128.97C71.1219 132.17 79.516 133.415 87.8365 132.595C96.1569 131.776 104.147 128.917 111.098 124.272C118.05 119.627 123.749 113.339 127.69 105.966C131.631 98.5923 133.693 90.3607 133.693 82H164.853Z" fill="#D014E9"/>
<path d="M24.8705 24.0172C36.3384 12.5493 50.9494 4.73959 66.8559 1.5756C82.7623 -1.58838 99.2498 0.0354979 114.233 6.24189C129.217 12.4483 142.024 22.9584 151.034 36.4433C160.044 49.9281 164.853 65.782 164.853 82.0001L133.693 82C133.693 71.9448 130.712 62.1154 125.125 53.7548C119.539 45.3942 111.599 38.8779 102.309 35.03C93.0191 31.182 82.7969 30.1752 72.9349 32.1369C63.0729 34.0985 54.0141 38.9406 46.904 46.0507L24.8705 24.0172Z" fill="#F4A2FF"/>
</svg>
