<svg width="496" height="345" viewBox="0 0 496 345" fill="none" xmlns="http://www.w3.org/2000/svg">
<rect width="496" height="345" rx="8" fill="#EFEFEF"/>
<rect x="472.143" y="104.81" width="30.1034" height="36.1241" rx="5" transform="rotate(90.2103 472.143 104.81)" fill="#475569"/>
<rect x="472.041" y="145.618" width="30.1034" height="36.1241" rx="5" transform="rotate(90.2103 472.041 145.618)" fill="#334155"/>
<rect x="472.041" y="186.558" width="30.1034" height="36.1241" rx="5" transform="rotate(90.2103 472.041 186.558)" fill="#1E293B"/>
<rect x="472.041" y="226.897" width="30.1034" height="36.1241" rx="5" transform="rotate(90.2103 472.041 226.897)" fill="#0F172A"/>
<rect x="426.386" y="104.81" width="30.1034" height="36.1241" rx="5" transform="rotate(90.2103 426.386 104.81)" fill="#DC2626"/>
<rect x="426.173" y="145.618" width="30.1034" height="36.1241" rx="5" transform="rotate(90.2103 426.173 145.618)" fill="#B91C1C"/>
<rect x="426.173" y="186.558" width="30.1034" height="36.1241" rx="5" transform="rotate(90.2103 426.173 186.558)" fill="#991B1B"/>
<rect x="426.173" y="226.897" width="30.1034" height="36.1241" rx="5" transform="rotate(90.2103 426.173 226.897)" fill="#7F1D1D"/>
<rect x="380.628" y="104.81" width="30.1034" height="36.1241" rx="5" transform="rotate(90.2103 380.628 104.81)" fill="#EA580C"/>
<rect x="380.306" y="145.618" width="30.1034" height="36.1241" rx="5" transform="rotate(90.2103 380.306 145.618)" fill="#C2410C"/>
<rect x="380.306" y="186.558" width="30.1034" height="36.1241" rx="5" transform="rotate(90.2103 380.306 186.558)" fill="#9A3412"/>
<rect x="380.306" y="226.897" width="30.1034" height="36.1241" rx="5" transform="rotate(90.2103 380.306 226.897)" fill="#7C2D12"/>
<rect x="334.871" y="104.81" width="30.1034" height="36.1241" rx="5" transform="rotate(90.2103 334.871 104.81)" fill="#D97706"/>
<rect x="334.438" y="145.618" width="30.1034" height="36.1241" rx="5" transform="rotate(90.2103 334.438 145.618)" fill="#B45309"/>
<rect x="334.438" y="186.558" width="30.1034" height="36.1241" rx="5" transform="rotate(90.2103 334.438 186.558)" fill="#92400E"/>
<rect x="334.438" y="226.897" width="30.1034" height="36.1241" rx="5" transform="rotate(90.2103 334.438 226.897)" fill="#78350F"/>
<rect x="289.114" y="104.81" width="30.1034" height="36.1241" rx="5" transform="rotate(90.2103 289.114 104.81)" fill="#65A30D"/>
<rect x="288.571" y="145.618" width="30.1034" height="36.1241" rx="5" transform="rotate(90.2103 288.571 145.618)" fill="#4D7C0F"/>
<rect x="288.571" y="186.558" width="30.1034" height="36.1241" rx="5" transform="rotate(90.2103 288.571 186.558)" fill="#3F6212"/>
<rect x="288.571" y="226.897" width="30.1034" height="36.1241" rx="5" transform="rotate(90.2103 288.571 226.897)" fill="#365314"/>
<rect x="242.755" y="104.81" width="30.1034" height="36.1241" rx="5" transform="rotate(90.2103 242.755 104.81)" fill="#0D9488"/>
<rect x="242.704" y="146.22" width="30.1034" height="36.1241" rx="5" transform="rotate(90.2103 242.704 146.22)" fill="#0F766E"/>
<rect x="242.704" y="186.558" width="30.1034" height="36.1241" rx="5" transform="rotate(90.2103 242.704 186.558)" fill="#115E59"/>
<rect x="242.704" y="226.897" width="30.1034" height="36.1241" rx="5" transform="rotate(90.2103 242.704 226.897)" fill="#134E4A"/>
<rect x="196.997" y="104.81" width="30.1034" height="36.1241" rx="5" transform="rotate(90.2103 196.997 104.81)" fill="#4F46E5"/>
<rect x="196.836" y="145.618" width="30.1034" height="36.1241" rx="5" transform="rotate(90.2103 196.836 145.618)" fill="#4338CA"/>
<rect x="196.836" y="186.558" width="30.1034" height="36.1241" rx="5" transform="rotate(90.2103 196.836 186.558)" fill="#3730A3"/>
<rect x="196.836" y="226.897" width="30.1034" height="36.1241" rx="5" transform="rotate(90.2103 196.836 226.897)" fill="#312E81"/>
<rect x="151.24" y="104.81" width="30.1034" height="36.1241" rx="5" transform="rotate(90.2103 151.24 104.81)" fill="#9333EA"/>
<rect x="150.969" y="145.618" width="30.1034" height="36.1241" rx="5" transform="rotate(90.2103 150.969 145.618)" fill="#7E22CE"/>
<rect x="150.969" y="186.558" width="30.1034" height="36.1241" rx="5" transform="rotate(90.2103 150.969 186.558)" fill="#6B21A8"/>
<rect x="59.7256" y="104.81" width="30.1034" height="36.1241" rx="5" transform="rotate(90.2103 59.7256 104.81)" fill="#DB2777"/>
<rect x="59.2344" y="145.618" width="30.1034" height="36.1241" rx="5" transform="rotate(90.2103 59.2344 145.618)" fill="#BE185D"/>
<rect x="59.2344" y="186.558" width="30.1034" height="36.1241" rx="5" transform="rotate(90.2103 59.2344 186.558)" fill="#9D174D"/>
<rect x="59.2344" y="226.897" width="30.1034" height="36.1241" rx="5" transform="rotate(90.2103 59.2344 226.897)" fill="#831843"/>
<rect x="150.969" y="226.897" width="30.1034" height="36.1241" rx="5" transform="rotate(90.2103 150.969 226.897)" fill="#701A75"/>
<rect x="59.7256" y="24.1323" width="30.1034" height="36.1241" rx="5" transform="rotate(90.2103 59.7256 24.1323)" fill="#F472B6"/>
<rect x="105.483" y="24.1323" width="30.1034" height="36.1241" rx="5" transform="rotate(90.2103 105.483 24.1323)" fill="#60A5FA"/>
<rect x="151.24" y="24.1323" width="30.1034" height="36.1241" rx="5" transform="rotate(90.2103 151.24 24.1323)" fill="#C084FC"/>
<rect x="196.997" y="24.1323" width="30.1034" height="36.1241" rx="5" transform="rotate(90.2103 196.997 24.1323)" fill="#818CF8"/>
<rect x="242.755" y="24.1323" width="30.1034" height="36.1241" rx="5" transform="rotate(90.2103 242.755 24.1323)" fill="#2DD4BF"/>
<rect x="288.512" y="24.1323" width="30.1034" height="36.1241" rx="5" transform="rotate(90.2103 288.512 24.1323)" fill="#A3E635"/>
<rect x="334.269" y="24.1323" width="30.1034" height="36.1241" rx="5" transform="rotate(90.2103 334.269 24.1323)" fill="#FBBF24"/>
<rect x="380.026" y="24.1323" width="30.1034" height="36.1241" rx="5" transform="rotate(90.2103 380.026 24.1323)" fill="#FB923C"/>
<rect x="425.783" y="24.1323" width="30.1034" height="36.1241" rx="5" transform="rotate(90.2103 425.783 24.1323)" fill="#F87171"/>
<rect x="471.54" y="24.1323" width="30.1034" height="36.1241" rx="5" transform="rotate(90.2103 471.54 24.1323)" fill="#94A3B8"/>
<rect x="59.7256" y="64.4712" width="30.1034" height="36.1241" rx="5" transform="rotate(90.2103 59.7256 64.4712)" fill="#EC4899"/>
<rect x="105.483" y="64.4712" width="30.1034" height="36.1241" rx="5" transform="rotate(90.2103 105.483 64.4712)" fill="#3B82F6"/>
<rect x="151.24" y="64.4712" width="30.1034" height="36.1241" rx="5" transform="rotate(90.2103 151.24 64.4712)" fill="#A855F7"/>
<rect x="196.997" y="64.4712" width="30.1034" height="36.1241" rx="5" transform="rotate(90.2103 196.997 64.4712)" fill="#6366F1"/>
<rect x="242.755" y="64.4712" width="30.1034" height="36.1241" rx="5" transform="rotate(90.2103 242.755 64.4712)" fill="#14B8A6"/>
<rect x="288.512" y="64.4712" width="30.1034" height="36.1241" rx="5" transform="rotate(90.2103 288.512 64.4712)" fill="#84CC16"/>
<rect x="334.269" y="64.4712" width="30.1034" height="36.1241" rx="5" transform="rotate(90.2103 334.269 64.4712)" fill="#F59E0B"/>
<rect x="380.026" y="64.4712" width="30.1034" height="36.1241" rx="5" transform="rotate(90.2103 380.026 64.4712)" fill="#F97316"/>
<rect x="425.783" y="64.4712" width="30.1034" height="36.1241" rx="5" transform="rotate(90.2103 425.783 64.4712)" fill="#EF4444"/>
<rect x="471.54" y="64.4712" width="30.1034" height="36.1241" rx="5" transform="rotate(90.2103 471.54 64.4712)" fill="#64748B"/>
<rect x="105.483" y="104.81" width="30.1034" height="36.1241" rx="5" transform="rotate(90.2103 105.483 104.81)" fill="#2563EB"/>
<rect x="105.102" y="145.618" width="30.1034" height="36.1241" rx="5" transform="rotate(90.2103 105.102 145.618)" fill="#1D4ED8"/>
<rect x="105.102" y="186.558" width="30.1034" height="36.1241" rx="5" transform="rotate(90.2103 105.102 186.558)" fill="#1E40AF"/>
<rect x="105.102" y="226.897" width="30.1034" height="36.1241" rx="5" transform="rotate(90.2103 105.102 226.897)" fill="#1E3A8A"/>
<path d="M187.562 305.045V297.364H189.091V305.045H187.562ZM184.489 301.966V300.443H192.17V301.966H184.489ZM208.834 299.148H207.061C206.993 298.769 206.866 298.436 206.68 298.148C206.495 297.86 206.268 297.616 205.999 297.415C205.73 297.214 205.429 297.062 205.095 296.96C204.766 296.858 204.415 296.807 204.044 296.807C203.374 296.807 202.773 296.975 202.243 297.312C201.716 297.65 201.3 298.144 200.993 298.795C200.69 299.447 200.538 300.242 200.538 301.182C200.538 302.129 200.69 302.928 200.993 303.58C201.3 304.231 201.718 304.723 202.249 305.057C202.779 305.39 203.375 305.557 204.038 305.557C204.406 305.557 204.754 305.508 205.084 305.409C205.417 305.307 205.718 305.157 205.987 304.96C206.256 304.763 206.483 304.523 206.669 304.239C206.858 303.951 206.989 303.621 207.061 303.25L208.834 303.256C208.739 303.828 208.555 304.354 208.283 304.835C208.014 305.312 207.667 305.725 207.243 306.074C206.822 306.419 206.341 306.686 205.8 306.875C205.258 307.064 204.667 307.159 204.027 307.159C203.019 307.159 202.122 306.92 201.334 306.443C200.546 305.962 199.925 305.275 199.47 304.381C199.019 303.487 198.794 302.42 198.794 301.182C198.794 299.939 199.021 298.873 199.476 297.983C199.93 297.089 200.552 296.403 201.339 295.926C202.127 295.445 203.023 295.205 204.027 295.205C204.644 295.205 205.22 295.294 205.754 295.472C206.292 295.646 206.775 295.903 207.203 296.244C207.631 296.581 207.985 296.994 208.266 297.483C208.546 297.968 208.735 298.523 208.834 299.148ZM216.327 303.381V298.273H218.031V307H216.361V305.489H216.27C216.069 305.955 215.747 306.343 215.304 306.653C214.865 306.96 214.317 307.114 213.662 307.114C213.101 307.114 212.605 306.991 212.173 306.744C211.745 306.494 211.408 306.125 211.162 305.636C210.92 305.148 210.798 304.544 210.798 303.824V298.273H212.497V303.619C212.497 304.214 212.662 304.687 212.991 305.04C213.321 305.392 213.749 305.568 214.276 305.568C214.594 305.568 214.91 305.489 215.224 305.33C215.543 305.17 215.806 304.93 216.014 304.608C216.226 304.286 216.33 303.877 216.327 303.381ZM226.854 300.403L225.314 300.676C225.25 300.479 225.147 300.292 225.007 300.114C224.871 299.936 224.685 299.79 224.45 299.676C224.215 299.562 223.922 299.506 223.57 299.506C223.089 299.506 222.687 299.614 222.365 299.83C222.043 300.042 221.882 300.316 221.882 300.653C221.882 300.945 221.99 301.18 222.206 301.358C222.422 301.536 222.77 301.682 223.251 301.795L224.638 302.114C225.441 302.299 226.039 302.585 226.433 302.972C226.827 303.358 227.024 303.86 227.024 304.477C227.024 305 226.873 305.466 226.57 305.875C226.27 306.28 225.852 306.598 225.314 306.83C224.78 307.061 224.161 307.176 223.456 307.176C222.479 307.176 221.681 306.968 221.064 306.551C220.446 306.131 220.068 305.534 219.928 304.761L221.57 304.511C221.672 304.939 221.882 305.263 222.2 305.483C222.518 305.699 222.933 305.807 223.445 305.807C224.001 305.807 224.446 305.691 224.78 305.46C225.113 305.225 225.28 304.939 225.28 304.602C225.28 304.33 225.178 304.1 224.973 303.915C224.772 303.729 224.464 303.589 224.047 303.494L222.57 303.17C221.755 302.985 221.153 302.689 220.763 302.284C220.376 301.879 220.183 301.366 220.183 300.744C220.183 300.229 220.327 299.778 220.615 299.392C220.903 299.006 221.301 298.705 221.808 298.489C222.316 298.269 222.897 298.159 223.553 298.159C224.496 298.159 225.238 298.364 225.78 298.773C226.321 299.178 226.679 299.722 226.854 300.403ZM232.966 298.273V299.636H228.199V298.273H232.966ZM229.477 296.182H231.176V304.438C231.176 304.767 231.225 305.015 231.324 305.182C231.422 305.345 231.549 305.456 231.705 305.517C231.864 305.574 232.036 305.602 232.222 305.602C232.358 305.602 232.477 305.593 232.58 305.574C232.682 305.555 232.761 305.54 232.818 305.528L233.125 306.932C233.027 306.97 232.886 307.008 232.705 307.045C232.523 307.087 232.295 307.11 232.023 307.114C231.576 307.121 231.159 307.042 230.773 306.875C230.386 306.708 230.074 306.451 229.835 306.102C229.597 305.754 229.477 305.316 229.477 304.79V296.182ZM238.428 307.176C237.609 307.176 236.895 306.989 236.286 306.614C235.676 306.239 235.202 305.714 234.865 305.04C234.528 304.366 234.359 303.578 234.359 302.676C234.359 301.771 234.528 300.979 234.865 300.301C235.202 299.623 235.676 299.097 236.286 298.722C236.895 298.347 237.609 298.159 238.428 298.159C239.246 298.159 239.96 298.347 240.57 298.722C241.179 299.097 241.653 299.623 241.99 300.301C242.327 300.979 242.496 301.771 242.496 302.676C242.496 303.578 242.327 304.366 241.99 305.04C241.653 305.714 241.179 306.239 240.57 306.614C239.96 306.989 239.246 307.176 238.428 307.176ZM238.433 305.75C238.964 305.75 239.403 305.61 239.751 305.33C240.1 305.049 240.357 304.676 240.524 304.21C240.695 303.744 240.78 303.231 240.78 302.67C240.78 302.114 240.695 301.602 240.524 301.136C240.357 300.667 240.1 300.29 239.751 300.006C239.403 299.722 238.964 299.58 238.433 299.58C237.899 299.58 237.456 299.722 237.104 300.006C236.755 300.29 236.496 300.667 236.325 301.136C236.159 301.602 236.075 302.114 236.075 302.67C236.075 303.231 236.159 303.744 236.325 304.21C236.496 304.676 236.755 305.049 237.104 305.33C237.456 305.61 237.899 305.75 238.433 305.75ZM244.392 307V298.273H246.023V299.693H246.131C246.313 299.212 246.61 298.837 247.023 298.568C247.436 298.295 247.93 298.159 248.506 298.159C249.089 298.159 249.578 298.295 249.972 298.568C250.369 298.841 250.663 299.216 250.852 299.693H250.943C251.152 299.227 251.483 298.856 251.938 298.58C252.392 298.299 252.934 298.159 253.562 298.159C254.354 298.159 255 298.407 255.5 298.903C256.004 299.4 256.256 300.148 256.256 301.148V307H254.557V301.307C254.557 300.716 254.396 300.288 254.074 300.023C253.752 299.758 253.367 299.625 252.92 299.625C252.367 299.625 251.938 299.795 251.631 300.136C251.324 300.473 251.17 300.907 251.17 301.438V307H249.477V301.199C249.477 300.725 249.33 300.345 249.034 300.057C248.739 299.769 248.354 299.625 247.881 299.625C247.559 299.625 247.261 299.71 246.989 299.881C246.72 300.047 246.502 300.28 246.335 300.58C246.172 300.879 246.091 301.225 246.091 301.619V307H244.392ZM266.443 307.176C265.598 307.176 264.871 306.985 264.261 306.602C263.655 306.216 263.189 305.684 262.864 305.006C262.538 304.328 262.375 303.551 262.375 302.676C262.375 301.79 262.542 301.008 262.875 300.33C263.208 299.648 263.678 299.116 264.284 298.733C264.89 298.35 265.604 298.159 266.426 298.159C267.089 298.159 267.68 298.282 268.199 298.528C268.718 298.771 269.136 299.112 269.455 299.551C269.777 299.991 269.968 300.504 270.028 301.091H268.375C268.284 300.682 268.076 300.33 267.75 300.034C267.428 299.739 266.996 299.591 266.455 299.591C265.981 299.591 265.566 299.716 265.21 299.966C264.858 300.212 264.583 300.564 264.386 301.023C264.189 301.477 264.091 302.015 264.091 302.636C264.091 303.273 264.188 303.822 264.381 304.284C264.574 304.746 264.847 305.104 265.199 305.358C265.555 305.612 265.973 305.739 266.455 305.739C266.777 305.739 267.068 305.68 267.33 305.562C267.595 305.441 267.816 305.269 267.994 305.045C268.176 304.822 268.303 304.553 268.375 304.239H270.028C269.968 304.803 269.784 305.307 269.477 305.75C269.17 306.193 268.759 306.542 268.244 306.795C267.733 307.049 267.133 307.176 266.443 307.176ZM275.521 307.176C274.703 307.176 273.989 306.989 273.379 306.614C272.769 306.239 272.296 305.714 271.959 305.04C271.622 304.366 271.453 303.578 271.453 302.676C271.453 301.771 271.622 300.979 271.959 300.301C272.296 299.623 272.769 299.097 273.379 298.722C273.989 298.347 274.703 298.159 275.521 298.159C276.339 298.159 277.054 298.347 277.663 298.722C278.273 299.097 278.747 299.623 279.084 300.301C279.421 300.979 279.589 301.771 279.589 302.676C279.589 303.578 279.421 304.366 279.084 305.04C278.747 305.714 278.273 306.239 277.663 306.614C277.054 306.989 276.339 307.176 275.521 307.176ZM275.527 305.75C276.057 305.75 276.497 305.61 276.845 305.33C277.194 305.049 277.451 304.676 277.618 304.21C277.788 303.744 277.874 303.231 277.874 302.67C277.874 302.114 277.788 301.602 277.618 301.136C277.451 300.667 277.194 300.29 276.845 300.006C276.497 299.722 276.057 299.58 275.527 299.58C274.993 299.58 274.55 299.722 274.197 300.006C273.849 300.29 273.589 300.667 273.419 301.136C273.252 301.602 273.169 302.114 273.169 302.67C273.169 303.231 273.252 303.744 273.419 304.21C273.589 304.676 273.849 305.049 274.197 305.33C274.55 305.61 274.993 305.75 275.527 305.75ZM283.185 295.364V307H281.486V295.364H283.185ZM289.146 307.176C288.328 307.176 287.614 306.989 287.004 306.614C286.394 306.239 285.921 305.714 285.584 305.04C285.247 304.366 285.078 303.578 285.078 302.676C285.078 301.771 285.247 300.979 285.584 300.301C285.921 299.623 286.394 299.097 287.004 298.722C287.614 298.347 288.328 298.159 289.146 298.159C289.964 298.159 290.679 298.347 291.288 298.722C291.898 299.097 292.372 299.623 292.709 300.301C293.046 300.979 293.214 301.771 293.214 302.676C293.214 303.578 293.046 304.366 292.709 305.04C292.372 305.714 291.898 306.239 291.288 306.614C290.679 306.989 289.964 307.176 289.146 307.176ZM289.152 305.75C289.682 305.75 290.122 305.61 290.47 305.33C290.819 305.049 291.076 304.676 291.243 304.21C291.413 303.744 291.499 303.231 291.499 302.67C291.499 302.114 291.413 301.602 291.243 301.136C291.076 300.667 290.819 300.29 290.47 300.006C290.122 299.722 289.682 299.58 289.152 299.58C288.618 299.58 288.175 299.722 287.822 300.006C287.474 300.29 287.214 300.667 287.044 301.136C286.877 301.602 286.794 302.114 286.794 302.67C286.794 303.231 286.877 303.744 287.044 304.21C287.214 304.676 287.474 305.049 287.822 305.33C288.175 305.61 288.618 305.75 289.152 305.75ZM295.111 307V298.273H296.753V299.659H296.844C297.003 299.189 297.283 298.82 297.685 298.551C298.09 298.278 298.548 298.142 299.06 298.142C299.166 298.142 299.291 298.146 299.435 298.153C299.582 298.161 299.698 298.17 299.781 298.182V299.807C299.713 299.788 299.592 299.767 299.418 299.744C299.243 299.718 299.069 299.705 298.895 299.705C298.493 299.705 298.135 299.79 297.821 299.96C297.51 300.127 297.264 300.36 297.082 300.659C296.901 300.955 296.81 301.292 296.81 301.67V307H295.111Z" fill="#777777"/>
<rect x="23.5" y="282.5" width="448" height="38" rx="7.5" stroke="#777777"/>
</svg>
